HIERARCHY
ROOT Hips
{
  OFFSET 0 0 0
  CHANNELS 6 Xposition Yposition Zposition Zrotation Yrotation Xrotation
  JOINT LeftThigh
  {
    OFFSET 8.759831 0 -6.164326
    CHANNELS 3 Zrotation Yrotation Xrotation
    JOINT LeftLeg
    {
      OFFSET 0 0 -44.123596
      CHANNELS 3 Zrotation Yrotation Xrotation
      JOINT LeftFoot
      {
        OFFSET 0 0 -40.997191
        CHANNELS 3 Zrotation Yrotation Xrotation
        End Site
        {
          OFFSET 0 -13.883989 -5.217556
        }
      }
    }
  }
  JOINT RightThigh
  {
    OFFSET -8.759831 0 -6.164326
    CHANNELS 3 Zrotation Yrotation Xrotation
    JOINT RightLeg
    {
      OFFSET 0 0 -44.123596
      CHANNELS 3 Zrotation Yrotation Xrotation
      JOINT RightFoot
      {
        OFFSET 0 0 -40.997191
        CHANNELS 3 Zrotation Yrotation Xrotation
        End Site
        {
          OFFSET 0 -13.883989 -5.217556
        }
      }
    }
  }
  JOINT SpineLow
  {
    OFFSET 0 0 4.91573
    CHANNELS 3 Zrotation Yrotation Xrotation
    JOINT SpineMid
    {
      OFFSET 0 0 13.436657
      CHANNELS 3 Zrotation Yrotation Xrotation
      JOINT Chest
      {
        OFFSET 0 0 13.436657
        CHANNELS 3 Zrotation Yrotation Xrotation
        JOINT LeftShoulder
        {
          OFFSET 7.865169 1.474719 9.831461
          CHANNELS 3 Zrotation Yrotation Xrotation
          JOINT LeftArm
          {
            OFFSET 9.536517 0 4.424157
            CHANNELS 3 Zrotation Yrotation Xrotation
            JOINT LeftForearm
            {
              OFFSET 0 0 26.845787
              CHANNELS 3 Zrotation Yrotation Xrotation
              JOINT LeftHand
              {
                OFFSET 0 0 26.247051
                CHANNELS 3 Zrotation Yrotation Xrotation
                End Site
                {
                  OFFSET 0 0 8.75
                }
              }
            }
          }
        }
        JOINT RightShoulder
        {
          OFFSET -7.865169 1.474719 9.831461
          CHANNELS 3 Zrotation Yrotation Xrotation
          JOINT RightArm
          {
            OFFSET -9.536517 0 4.424157
            CHANNELS 3 Zrotation Yrotation Xrotation
            JOINT RightForearm
            {
              OFFSET 0 0 -26.845787
              CHANNELS 3 Zrotation Yrotation Xrotation
              JOINT RightHand
              {
                OFFSET 0 0 -26.247051
                CHANNELS 3 Zrotation Yrotation Xrotation
                End Site
                {
                  OFFSET 0 0 -8.75
                }
              }
            }
          }
        }
        JOINT Neck
        {
          OFFSET 0 0 15.730337
          CHANNELS 3 Zrotation Yrotation Xrotation
          JOINT Head
          {
            OFFSET 0 0 11.797753
            CHANNELS 3 Zrotation Yrotation Xrotation
            End Site
            {
              OFFSET 0 0 14.747191
            }
          }
        }
      }
    }
  }
}
MOTION
Frames: 10
Frame Time: 0.01
0 98.314607 0 0 0 -90 0 0 2 0 0 2 0 0 0 0 0 2 0 0 2 0 0 0 0 0 -4 0 0 -2 0 0 6 0 0 0 0 90 -1.5 0 0 8 90 0 6 0 0 0 0 90 1.5 0 0 -8 90 -0 -6 0 0 8 0 0 -8
-0.412269 98.276611 0.806323 0.315592 63.825405 -89.869306 -0.633604 -0.370831 2.093897 -0.042845 -0.094929 2.100058 0.421224 0.430534 -0.085885 -0.253837 -0.331078 1.920703 0.342485 -0.217956 2.306837 -0.23466 0.402465 -0.001305 0.213653 0.214802 -0.060987 0.583471 0.587673 -0.164807 0.583471 0.587673 -0.164807 -0.128914 -0.896699 -0.2183 -70.184532 89.113212 -71.756662 0.856055 -0.364241 8.106551 89.770568 1.782041 6.981432 -0.854987 0.789463 0.828025 -119.26849 88.722419 -115.827438 -1.293865 -0.074138 -7.558124 90.534457 2.069341 -7.547459 -0.637693 -0.290859 0.521526 -0.478021 -0.218689 0.390841
-0.408917 98.275673 0.800937 0.321253 63.820437 -89.869893 -0.616202 -0.366191 2.097598 -0.076486 -0.089359 2.106911 0.442923 0.417547 -0.092669 -0.277613 -0.320501 1.928936 0.362559 -0.225748 2.304478 -0.22537 0.403739 -0.004624 0.210979 0.213031 -0.058033 0.576193 0.5828 -0.156772 0.576194 0.5828 -0.156771 -0.11176 -0.890935 -0.207921 -69.579058 89.107518 -71.143795 0.889494 -0.369798 8.094513 89.754492 1.769038 7.028737 -0.842851 0.791522 0.854777 -118.343804 88.695674 -114.899028 -1.341904 -0.061512 -7.557567 90.530082 2.070149 -7.531765 -0.62883 -0.288205 0.51337 -0.47138 -0.216683 0.384731
-0.414374 98.275375 0.797568 0.330429 63.82156 -89.86234 -0.660476 -0.358473 2.086128 -0.056919 -0.090616 2.123449 0.466652 0.41143 -0.09594 -0.274213 -0.32017 1.920316 0.348888 -0.223106 2.322167 -0.228259 0.404713 -0.017291 0.211949 0.212406 -0.051617 0.5789 0.581037 -0.139231 0.5789 0.581037 -0.139231 -0.106879 -0.884328 -0.2331 -69.254458 89.086595 -70.790095 0.892838 -0.36547 8.095714 89.793 1.804528 7.011408 -0.851584 0.782431 0.835979 -117.968933 88.682653 -114.506834 -1.373144 -0.071005 -7.564354 90.498936 2.076116 -7.523116 -0.656354 -0.299282 0.4987 -0.492021 -0.224998 0.373704
-0.413545 98.274956 0.792091 0.339909 63.816579 -89.862927 -0.649618 -0.35223 2.090778 -0.091887 -0.085474 2.132354 0.494898 0.39827 -0.099293 -0.301668 -0.310725 1.929938 0.379303 -0.226532 2.324831 -0.224751 0.405267 -0.022842 0.21099 0.210902 -0.045526 0.576337 0.576872 -0.122603 0.576337 0.576872 -0.122602 -0.100514 -0.878217 -0.245053 -67.6875 89.111186 -69.214391 0.879595 -0.369371 8.095063 89.726255 1.818963 7.047292 -0.859747 0.785239 0.848575 -116.646241 88.640468 -113.188114 -1.395683 -0.058354 -7.562948 90.512152 2.076427 -7.519752 -0.65482 -0.290705 0.492384 -0.49088 -0.218556 0.368975
-0.421855 98.275009 0.778183 0.343481 63.804029 -89.868796 -0.712155 -0.337245 2.084904 -0.039967 -0.09211 2.149268 0.521815 0.388755 -0.10123 -0.278525 -0.319457 1.936182 0.373458 -0.215612 2.335012 -0.235934 0.404799 -0.030333 0.217914 0.208935 -0.03868 0.595326 0.571445 -0.103847 0.595326 0.571445 -0.103847 -0.103247 -0.872788 -0.266286 -66.802803 89.123251 -68.315484 0.825749 -0.367846 8.13692 89.689495 1.823868 7.013944 -0.919321 0.782385 0.816925 -116.778339 88.650811 -113.354122 -1.400465 -0.066798 -7.535915 90.516567 2.105009 -7.54605 -0.696369 -0.29447 0.487609 -0.522041 -0.221408 0.365371
-0.426721 98.275002 0.766341 0.349389 63.799117 -89.871945 -0.718937 -0.32937 2.081686 -0.064953 -0.087263 2.16231 0.558869 0.371368 -0.102231 -0.299207 -0.312947 1.943752 0.405582 -0.2179 2.340994 -0.241673 0.403643 -0.036553 0.218671 0.208309 -0.035174 0.597427 0.569704 -0.094263 0.597427 0.569704 -0.094263 -0.104524 -0.882796 -0.258044 -66.437753 89.153544 -67.934618 0.760359 -0.376967 8.138611 89.61871 1.839433 7.003721 -0.935132 0.781353 0.838639 -116.121206 88.622767 -112.700488 -1.383209 -0.068658 -7.526137 90.544709 2.099409 -7.557375 -0.699285 -0.293441 0.496915 -0.524225 -0.22065 0.372351
-0.430046 98.275391 0.761326 0.348634 63.791446 -89.884755 -0.752975 -0.327082 2.080332 -0.073729 -0.076169 2.186675 0.627003 0.352878 -0.110752 -0.295489 -0.31459 1.943778 0.401981 -0.214349 2.363551 -0.221983 0.401332 -0.046321 0.225127 0.20693 -0.030095 0.615118 0.565898 -0.080336 0.615118 0.565898 -0.080336 -0.094062 -0.891279 -0.254119 -67.916338 89.145695 -69.354196 0.665387 -0.374059 8.159854 89.627574 1.877861 6.9131 -0.97348 0.777432 0.825618 -116.608032 88.649304 -113.179092 -1.36161 -0.083525 -7.524847 90.551137 2.110295 -7.589667 -0.738079 -0.30838 0.508342 -0.553302 -0.2319 0.380884
-0.434408 98.275742 0.748675 0.344933 63.787437 -89.89876 -0.76875 -0.322949 2.077296 -0.091805 -0.071488 2.204551 0.665207 0.340024 -0.115351 -0.299325 -0.315126 1.952056 0.411884 -0.217941 2.369456 -0.223167 0.403511 -0.048966 0.225451 0.205737 -0.027853 0.616025 0.562617 -0.074216 0.616025 0.562617 -0.074216 -0.096853 -0.899031 -0.234445 -67.903526 89.154007 -69.322943 0.586237 -0.376813 8.153707 89.590345 1.891717 6.905448 -0.979078 0.774886 0.856607 -116.126979 88.644085 -112.697864 -1.348325 -0.077185 -7.514317 90.570898 2.090556 -7.587434 -0.738261 -0.314005 0.527353 -0.553424 -0.236141 0.395135
-0.414996 98.273788 0.763308 0.352951 63.801651 -89.894483 -0.816444 -0.317835 2.081506 -0.03813 -0.079492 2.232994 0.640079 0.343898 -0.144241 -0.274712 -0.321105 1.954479 0.360216 -0.212428 2.376385 -0.217195 0.406562 -0.055519 0.228771 0.204649 -0.023891 0.625133 0.559607 -0.063368 0.625133 0.559607 -0.063368 -0.142065 -0.883909 -0.244201 -67.022359 89.131666 -68.441042 0.508512 -0.357927 8.208215 89.619688 1.93326 6.864559 -0.998218 0.764109 0.840803 -116.779564 88.678088 -113.345336 -1.353211 -0.082559 -7.506374 90.553297 2.082941 -7.594072 -0.774821 -0.332291 0.541383 -0.58082 -0.249905 0.405615
